# xmcd
#
# Track frame offsets:
#	150
#	17971
#	32483
#	44914
#	59104
#	71296
#	95266
#	110100
#	134310
#	147506
#	162536
#	190827
#	208474
#	228169
#	238136
#	253476
#	266409
#	276961
#	288379
#	299726
#
# Disc length: 4206 seconds
#
# Revision: 1
# Processed by: cddbd v1.5.2PL0 Copyright (c) Steve Scherf et al.
# Submitted via: EZCDAudioConverter 3.0.3.2
#
DISCID=53106c14
DTITLE=Романтический саксофон
DYEAR=1900
DGENRE=Instrumental
TTITLE0=Ron Asprey - I Will Always Love You
TTITLE1=George Saxon - Flamingo
TTITLE2=Sil Austin - Smoke Gets In Your Eyes
TTITLE3=Fausto Papetti - Tempi D'Amore
TTITLE4=Antony Donadio - Greensleeves
TTITLE5=The John Tesh Project - Can You Feel The Love Tonight
TTITLE6=Stuart McDonald - Killing Me Softly With His Song
TTITLE7=John Coltrane - Slow Dance
TTITLE8=Gino Marinello - Girl
TTITLE9=Gil Ventura - Emmanuelle
TTITLE10=Joshua Redman - Take My Heart
TTITLE11=Richard Elliot - When A Man Loves A Woman
TTITLE12=Kenny G - My Heart Will Go On
TTITLE13=Billy May and Charlie Barnet - Ebb Tide
TTITLE14=Ben Webster - My Funny Valentine
TTITLE15=Sil Austin - Johnny Guitar
TTITLE16=Georgio Parreira - Samba Pa Ti
TTITLE17=Sam Tylor - Summertime
TTITLE18=Fausto Papetti - Love Theme from The Goodgather
TTITLE19=Sil Austin - Broken Promises
EXTD=
EXTT0=
EXTT1=
EXTT2=
EXTT3=
EXTT4=
EXTT5=
EXTT6=
EXTT7=
EXTT8=
EXTT9=
EXTT10=
EXTT11=
EXTT12=
EXTT13=
EXTT14=
EXTT15=
EXTT16=
EXTT17=
EXTT18=
EXTT19=
PLAYORDER=
